<?xml version='1.0' encoding='iso-8859-1'?>
<!DOCTYPE svg PUBLIC '-//W3C//DTD SVG 1.1//EN' 'http://www.w3.org/Graphics/SVG/1.1/DTD/svg11.dtd'>
<!-- Uploaded to: SVG Repo, www.svgrepo.com, Generator: SVG Repo Mixer Tools -->
<svg fill="#000000" height="70px" width="70px" version="1.1" xmlns="http://www.w3.org/2000/svg" viewBox="0 0 314.758 314.758" xmlns:xlink="http://www.w3.org/1999/xlink" enable-background="new 0 0 314.758 314.758">
  <g>
    <path fill="#2196f3" d="m290.215,61.106c-2.551-11.72-13.116-20.227-25.122-20.227h-2.124-4.612-73.298c-1.103,2.555-2.482,4.962-4.095,7.191h2.897c11.083,0 19.72,3.549 26.706,9.809h54.526c4.068,0 7.648,2.877 8.511,6.841 4.847,22.279 4.01,40.407-2.296,49.736-1.53,2.263-3.561,4.576-5.71,7.026-10.06,11.463-23.838,27.162-12.57,65.53 1.088,3.705 4.477,6.107 8.151,6.107 0.793,0 1.6-0.111 2.398-0.347 4.505-1.322 7.084-6.046 5.761-10.55-8.631-29.396-0.049-39.175 9.037-49.528 2.402-2.737 4.887-5.568 7.017-8.72 11.568-17.111 9.007-43.633 4.823-62.868z"/>
    <path fill="#2196f3" d="m116.332,48.071h3.186c-1.613-2.229-2.992-4.636-4.095-7.191h-85.906c-4.694,0-8.5,3.806-8.5,8.5s3.806,8.5 8.5,8.5h60.11c7.01-6.285 15.667-9.809 26.705-9.809z"/>
    <circle cx="150.241" cy="25.907" r="25.907"/>
    <path   d="m214.152,80.95c-3.24-4.212-3.378-4.404-4.529-5.948-4.957-6.652-11.127-14.931-25.763-14.931-6.411,0-61.034,0-67.528,0-14.635,0-20.806,8.279-25.764,14.932-0.839,1.126-1.295,1.749-4.528,5.946l-6.932-14.882h-27.58l20.446,43.894c1.82,3.907 5.524,6.601 9.803,7.128 4.316,0.527 8.545-1.211 11.239-4.536 3.837-4.724 13.42-17.011 17.597-22.609 1.029-1.382 2.745-3.374 3.506-4.248 0.271-0.311 0.647-0.512 1.057-0.563 0.462-0.059 0.927,0.084 1.275,0.393 0.349,0.308 0.548,0.751 0.548,1.217 0,22.821 0.006,202.36 0.006,213.017 0,8.284 6.716,15 15,15s15-6.716 15-15v-116.661c0-1.788 1.45-3.238 3.238-3.238s3.238,1.45 3.238,3.238v116.659c0,8.284 6.716,15 15,15s15-6.716 15-15c-0.302-220.371-0.274-194.703-0.272-212.888 0-0.464 0.193-0.907 0.533-1.223s0.796-0.477 1.259-0.443c0.001,0 0.001,0 0.001,0 0.436,0.032 0.839,0.242 1.115,0.58 1.081,1.32 3.91,4.786 5.339,6.656 9.616,12.573 15.475,19.811 15.72,20.112 2.642,3.261 6.843,5.074 11.239,4.536 4.278-0.527 7.982-3.221 9.803-7.128l20.446-43.894h-27.579l-6.933,14.884z"/>
  </g>
</svg>