<?xml version='1.0' encoding='iso-8859-1'?>
<!DOCTYPE svg PUBLIC '-//W3C//DTD SVG 1.1//EN' 'http://www.w3.org/Graphics/SVG/1.1/DTD/svg11.dtd'>
<!-- Uploaded to: SVG Repo, www.svgrepo.com, Generator: SVG Repo Mixer Tools -->
<svg fill="#000000" height="70px" width="70px" version="1.1" xmlns="http://www.w3.org/2000/svg" viewBox="0 0 297.725 297.725" xmlns:xlink="http://www.w3.org/1999/xlink" enable-background="new 0 0 297.725 297.725">
  <g>
    <circle cx="142.128" cy="51.835" r="27.59"/>
    <path fill="#2196f3" d="m289.225,129.516h-40.017c-2.941-5.076-8.419-8.5-14.707-8.5h-38.275c-9.389,0-17,7.611-17,17 0,3.005 0.786,5.823 2.154,8.272l-5.033,8.42c5.684,2.53 9.992,7.034 12.388,12.408l7.24-12.113c0.084,0.001 0.166,0.013 0.25,0.013h38.275c6.289,0 11.766-3.424 14.707-8.5h40.017c4.694,0 8.5-3.806 8.5-8.5 0.001-4.695-3.805-8.5-8.499-8.5z"/>
    <path  d="m178.18,181.175c2.263-6.523-1.19-13.644-7.713-15.906l-40.851-14.171-10.098-39.119 18.357,29.283 3.756,1.303 8.922-23.366c3.672-9.616-1.147-20.388-10.764-24.06l-31.05-11.856c-9.616-3.672-20.388,1.147-24.06,10.763l-32.009,83.837c-0.897,2.673-1.92,5.139-1.421,8.981l8.693,56.623h-44.942c-8.284,0-15,6.716-15,15 0,8.284 6.716,15 15,15h62.421c4.376,0 8.533-1.911 11.383-5.231 2.85-3.32 4.107-7.72 3.443-12.045l-8.579-55.878 38.456,9.685-10.657,45.01c-1.908,8.062 3.079,16.144 11.141,18.053 1.162,0.274 2.324,0.407 3.469,0.406 6.794,0 12.95-4.647 14.584-11.547 8.553-36.138 14.456-62.833 14.456-62.833-19.78-6.861-28.644-9.936-43.958-15.249-10.509-3.646-15.936-13.595-16.071-19.759l.853-43.438 11.144,43.175c1.047,4.054 4.052,7.314 8.007,8.686l47.183,16.367c6.516,2.26 13.642-1.188 15.905-7.714z"/>
  </g>
</svg>