<?xml version='1.0' encoding='iso-8859-1'?>
<!DOCTYPE svg PUBLIC '-//W3C//DTD SVG 1.1//EN' 'http://www.w3.org/Graphics/SVG/1.1/DTD/svg11.dtd'>
<!-- Uploaded to: SVG Repo, www.svgrepo.com, Generator: SVG Repo Mixer Tools -->
<svg fill="#000000" height="70px" width="70px" version="1.1" xmlns="http://www.w3.org/2000/svg" viewBox="0 0 315.407 315.407" xmlns:xlink="http://www.w3.org/1999/xlink" enable-background="new 0 0 315.407 315.407">
  <g>
    <path d="m141.182,199.074c3.045-1.97 6.667-3.123 10.556-3.123h0.104c0.628-2.934 1.623-5.733 2.928-8.351 3.208-6.436 8.313-11.764 14.577-15.255v-40.889h-62.731l.005,169.739c0,7.849 6.363,14.212 14.212,14.212s14.212-6.363 14.212-14.212v-31.602c-1.769-2.934-2.806-6.357-2.806-10.025v-13.078c-4.875-3.532-8.053-9.271-8.053-15.738 0-6.469 3.18-12.21 8.058-15.742 0.078-3.505 1.101-6.775 2.801-9.592v-14.749c0-1.695 1.374-3.068 3.068-3.068 1.694,0 3.068,1.374 3.068,3.068v8.405z"/>
    <path d="m141.182,275.937v25.258c0,7.849 6.363,14.212 14.212,14.212 7.849,0 14.212-6.363 14.212-14.212v-22.129h-17.867c-3.892,0-7.511-1.158-10.557-3.129z"/>
    <path d="m106.617,120.087h8.755v-22.297-23.686h-9.114c-15.377,0-27.95,12.51-28.026,27.887l-.438,87.006c-0.032,6.54 5.242,11.869 11.784,11.902 0.02,0 0.04,0 0.06,0 6.513,0 11.809-5.263 11.842-11.784l.438-87.006c0.007-1.296 1.06-2.341 2.355-2.338 1.295,0.004 2.343,1.055 2.343,2.35v17.966z"/>
    <path d="m161.177,50.145h-46.132c3.433,9.414 12.464,16.136 23.066,16.136 10.601,0 19.633-6.722 23.066-16.136z"/>
    <path d="m126.741,74.104c0,28.188 0,15.299 0,45.983h22.739c0-6.199 0-39.708 0-45.983h-22.739z"/>
    <path d="m160.849,74.104c0,6.276 0,39.784 0,45.983h8.498v-17.965c0-1.366 1.105-2.475 2.472-2.479 1.366-0.004 2.478,1.099 2.485,2.466l.34,67.828c3.734-1.336 7.752-2.068 11.94-2.068 4.116,0 8.067,0.709 11.747,2.002l-.341-67.882c-0.079-15.377-12.651-27.886-28.026-27.886h-9.115z"/>
    <path d="m113.914,39.249h48.394c4.448,0 8.053-3.606 8.053-8.053 0-2.963-1.605-5.544-3.987-6.943-0.568-4.394-2.132-8.475-4.465-12.006-4.103-6.209-10.566-10.719-18.114-12.247v13.686c0,3.139-2.545,5.685-5.685,5.685-3.139,0-5.685-2.545-5.685-5.685v-13.686c-7.548,1.528-14.01,6.038-18.113,12.247-2.333,3.531-3.897,7.611-4.465,12.006-2.383,1.399-3.987,3.981-3.987,6.943 0.001,4.448 3.606,8.053 8.054,8.053z"/>
    <path fill="#2196f3" d="m229.56,222.698v-7.248c0-4.49-3.64-8.129-8.129-8.129h-10.689v-3.923c0-13.321-10.836-24.158-24.157-24.158-13.321,0-24.158,10.837-24.158,24.158v3.923h-10.689c-4.49,0-8.129,3.639-8.129,8.129v7.248c-4.448,0-8.053,3.606-8.053,8.053 0,4.447 3.605,8.053 8.053,8.053v20.763c0,4.489 3.639,8.129 8.129,8.129h69.693c4.49,0 8.129-3.64 8.129-8.129v-20.763c4.447,0 8.053-3.606 8.053-8.053-0.001-4.448-3.606-8.053-8.053-8.053zm-35.458,18.475h-16.107v-16.107h16.107v16.107zm.533-34.327h-16.102v-3.449c0-4.439 3.612-8.051 8.051-8.051s8.051,3.612 8.051,8.051v3.449z"/>
  </g>
</svg>