<svg aria-hidden="true" style="position: absolute; width: 0; height: 0; overflow: hidden;" version="1.1" xmlns="http://www.w3.org/2000/svg" xmlns:xlink="http://www.w3.org/1999/xlink">
<defs>
<symbol id="icon-close" width="24" height="24" viewBox="0 0 32 32">
<path d="M5.724 24.391l8.391-8.391-8.391-8.391c-0.232-0.24-0.374-0.566-0.374-0.926 0-0.736 0.597-1.333 1.333-1.333 0.36 0 0.687 0.143 0.927 0.375l8.39 8.39 8.391-8.391c0.243-0.251 0.583-0.407 0.959-0.407 0.736 0 1.333 0.597 1.333 1.333 0 0.376-0.156 0.716-0.407 0.959l-8.391 8.391 8.391 8.391c0.251 0.243 0.407 0.583 0.407 0.959 0 0.736-0.597 1.333-1.333 1.333-0.376 0-0.716-0.156-0.959-0.407l-8.391-8.391-8.391 8.391c-0.24 0.232-0.566 0.374-0.926 0.374-0.736 0-1.333-0.597-1.333-1.333 0-0.36 0.143-0.687 0.375-0.927l-0 0z"></path>
</symbol>
<symbol id="icon-email" width="24" height="24" viewBox="0 0 32 32">
<path d="M28 6h-24c-1.105 0-2 0.895-2 2v0 16c0 1.105 0.895 2 2 2v0h24c1.105 0 2-0.895 2-2v0-16c0-1.105-0.895-2-2-2v0zM25.8 8l-9.8 6.78-9.8-6.78zM4 24v-15.090l11.43 7.91c0.159 0.112 0.357 0.178 0.57 0.178s0.411-0.067 0.573-0.18l-0.003 0.002 11.43-7.91v15.090z"></path>
</symbol>
<symbol id="icon-home" width="16" height="16" viewBox="0 0 32 32">
<path d="M15.181 1.613c0.223-0.175 0.509-0.281 0.819-0.281s0.595 0.106 0.822 0.283l-0.003-0.002 12 9.333c0.314 0.246 0.515 0.626 0.515 1.052 0 0 0 0.001 0 0.001v-0 15.333c0 1.105-0.895 2-2 2v0h-7.333v-10.667c0-0.736-0.597-1.333-1.333-1.333v0h-5.333c-0.736 0-1.333 0.597-1.333 1.333v0 10.667h-7.333c-1.105 0-2-0.895-2-2v0-15.333c0-0 0-0.001 0-0.001 0-0.426 0.2-0.806 0.512-1.050l0.003-0.002 12-9.333z"></path>
</symbol>
<symbol id="icon-burger" width="24" height="24" viewBox="0 0 32 32">
<path d="M5.333 6.667c-0.736 0-1.333 0.597-1.333 1.333s0.597 1.333 1.333 1.333v0h21.333c0.736 0 1.333-0.597 1.333-1.333s-0.597-1.333-1.333-1.333v0h-21.333zM9.333 16c0-0.736 0.597-1.333 1.333-1.333v0h16c0.736 0 1.333 0.597 1.333 1.333s-0.597 1.333-1.333 1.333v0h-16c-0.736 0-1.333-0.597-1.333-1.333v0zM17.333 24c0-0.736 0.597-1.333 1.333-1.333v0h8c0.736 0 1.333 0.597 1.333 1.333s-0.597 1.333-1.333 1.333v0h-8c-0.736 0-1.333-0.597-1.333-1.333v0z"></path>
</symbol>
<symbol id="icon-mobile" width="24" height="24" viewBox="0 0 32 32">
<path d="M10.667 2.667c-2.209 0-4 1.791-4 4v18.667c0 2.209 1.791 4 4 4h10.667c2.209 0 4-1.791 4-4v-18.667c0-2.209-1.791-4-4-4h-10.667zM9.333 6.667c0-0.736 0.597-1.333 1.333-1.333h10.667c0.736 0 1.333 0.597 1.333 1.333v18.667c0 0.736-0.597 1.333-1.333 1.333h-10.667c-0.736 0-1.333-0.597-1.333-1.333v-18.667zM13.333 22.667c-0.736 0-1.333 0.597-1.333 1.333s0.597 1.333 1.333 1.333h5.333c0.736 0 1.333-0.597 1.333-1.333s-0.597-1.333-1.333-1.333h-5.333z"></path>
</symbol>
</defs>
</svg>
