<svg aria-hidden="true" style="position:absolute;width:0;height:0;overflow:hidden" xmlns="http://www.w3.org/2000/svg"><defs><symbol id="icon-client2" viewBox="0 0 25 32"><path d="M10.531 1.806h-.084a9.985 9.985 0 0 0-.388-.014h-.28c-.244 0-.494.006-.741.019a.523.523 0 0 0-.056 0 17.4 17.4 0 0 0-6.471 1.651l-.266.128v13.625l.623-.211a23.32 23.32 0 0 1 1.731-.513 21.155 21.155 0 0 1 4.982-.662v1.79a15.56 15.56 0 0 0-.655.019h-.051a19.948 19.948 0 0 0-3.833.588c-1.59.398-3.124.996-4.566 1.779V2.53A18.3 18.3 0 0 1 5.266.582 18.343 18.343 0 0 1 9.781 0h.263c.314.008.621.022.909.044.759.053 1.511.173 2.249.358v1.762a13.947 13.947 0 0 0-2.179-.329l-.045-.004c-.152-.013-.304-.026-.446-.026zm3.102 1.801c.391.03.796.044 1.205.044a19.352 19.352 0 0 0 4.747-.609c1.589-.4 3.123-.998 4.564-1.781v17.163a18.313 18.313 0 0 1-4.792 1.948 18.486 18.486 0 0 1-4.515.581 13.778 13.778 0 0 1-3.425-.404V3.274c.265.061.537.117.814.164.455.077.934.133 1.401.167zm8.734.133-.623.21c-.573.192-1.15.365-1.731.518a21.098 21.098 0 0 1-5.173.663c-.406 0-.78-.011-1.141-.034l-.497-.033v14.017l.427.038c.395.034.803.052 1.214.052a16.573 16.573 0 0 0 4.074-.527 17.107 17.107 0 0 0 3.184-1.144l.266-.128V3.742zM1.684 25.977a.912.912 0 0 0-.693-.28 1.034 1.034 0 0 0-.4.075.91.91 0 0 0-.512.518 1.023 1.023 0 0 0-.072.387v2.335c-.006.165.026.328.092.479.055.12.135.226.233.313a.815.815 0 0 0 .321.166c.114.032.231.048.349.049a.972.972 0 0 0 .892-.61.951.951 0 0 0 .075-.372v-.261h-.61v.208a.528.528 0 0 1-.036.208.359.359 0 0 1-.089.131.365.365 0 0 1-.128.067.425.425 0 0 1-.128.022.314.314 0 0 1-.286-.125.548.548 0 0 1-.081-.313v-2.177a.738.738 0 0 1 .075-.349.31.31 0 0 1 .299-.141.33.33 0 0 1 .272.131c.068.09.104.2.101.313v.202h.604v-.238a1.093 1.093 0 0 0-.279-.737zM5.31 25.95a1.051 1.051 0 0 0-1.38 0 .961.961 0 0 0-.237.327 1.099 1.099 0 0 0-.089.452v2.239a1.08 1.08 0 0 0 .089.459c.055.12.136.227.237.313a.94.94 0 0 0 .322.197 1.028 1.028 0 0 0 .728 0c.121-.044.233-.111.33-.197a.948.948 0 0 0 .23-.313 1.08 1.08 0 0 0 .089-.459v-2.239a1.08 1.08 0 0 0-.089-.452 1.015 1.015 0 0 0-.23-.327zm-.285 3.019a.405.405 0 0 1-.121.324.445.445 0 0 1-.574 0 .397.397 0 0 1-.121-.324V26.73a.405.405 0 0 1 .121-.324.445.445 0 0 1 .574 0 .397.397 0 0 1 .121.324v2.239zM10.072 29.969V25.73h-.587l-.771 2.244h-.011l-.777-2.244h-.581v4.239h.606V27.39h.011l.593 1.823h.302l.598-1.823h.011v2.579h.606zM13.513 26.027a.84.84 0 0 0-.343-.232 1.363 1.363 0 0 0-.439-.066h-.9v4.239h.604v-1.656h.311c.188.009.376-.031.545-.116a.882.882 0 0 0 .332-.324 1.02 1.02 0 0 0 .139-.369c.024-.16.035-.321.033-.482a2.421 2.421 0 0 0-.059-.606.898.898 0 0 0-.223-.39zm-.312 1.292a.547.547 0 0 1-.056.221.346.346 0 0 1-.156.149.619.619 0 0 1-.285.053h-.275v-1.441h.311a.578.578 0 0 1 .272.053.349.349 0 0 1 .142.157.62.62 0 0 1 .053.236v.282c0 .099.006.2 0 .291h-.006zM16.374 25.73h-.495l-.934 4.239h.604l.177-.911h.823l.177.911h.604l-.957-4.239zm-.557 2.751.297-1.537h.011l.296 1.537h-.604zM20.277 28.284h-.011l-.912-2.554h-.581v4.239h.604V27.42h.012l.923 2.549h.568V25.73h-.604v2.554zM23.968 25.73l-.486 1.685h-.012l-.486-1.685h-.64l.83 2.447v1.792h.604v-1.792l.83-2.447h-.64zM0 31.166h.291v.817h.198v-.817h.29v-.167H.001v.167zM2.447 30.998l-.381.984h.21l.081-.224h.392l.084.224h.215l-.391-.984h-.21zm-.031.595.134-.365.134.365h-.268zM4.866 31.62h.227v.127a.382.382 0 0 1-.234.083.244.244 0 0 1-.209-.093.411.411 0 0 1-.073-.257c0-.219.095-.329.283-.329a.206.206 0 0 1 .222.157l.195-.038c-.042-.192-.181-.289-.417-.289a.495.495 0 0 0-.344.127.494.494 0 0 0-.141.379.532.532 0 0 0 .126.369.477.477 0 0 0 .374.144.59.59 0 0 0 .417-.157v-.388h-.427v.166zM7.337 30.998h-.199v.984h.69v-.167h-.49v-.817zM9.426 30.998h-.199v.984h.199v-.984zM11.469 31.656l-.403-.657h-.193v.984h.185v-.643l.395.643h.198v-.984h-.182v.657zM13.315 31.549h.49v-.167h-.49v-.216h.528v-.167h-.727v.984h.747v-.167h-.548v-.266zM17.792 31.387h-.388v-.388h-.198v.984h.198v-.43h.388v.43h.198v-.984h-.198v.388zM19.649 31.549h.492v-.167h-.492v-.216h.529v-.167h-.727v.984h.746v-.167h-.548v-.266zM22.168 31.549c.171-.027.258-.117.258-.274a.236.236 0 0 0-.096-.219.553.553 0 0 0-.288-.058h-.417v.984h.198v-.412h.039a.261.261 0 0 1 .123.022.21.21 0 0 1 .07.072l.215.313h.237l-.12-.192a.685.685 0 0 0-.218-.236zm-.199-.136h-.146v-.247h.156a.526.526 0 0 1 .201.023c.014.013.026.029.033.046a.133.133 0 0 1-.005.111.128.128 0 0 1-.037.043.547.547 0 0 1-.201.023zM24.067 31.549h.49v-.167h-.49v-.216h.529v-.167h-.729v.984h.747v-.167h-.548v-.266z"/></symbol><symbol id="icon-client1" viewBox="0 0 28 32"><path d="m4.085 0 4.771 4.517L0 4.512v21.915h23.149v-8.379l4.766 4.512V.001H4.085zm18.854 17.517L9.411 4.71h13.528v12.807zm-4.2 5.704H3.663V8.482h1.066v13.741h14.01v.998zM7.223 29.344l-.557 1.147-.557-1.147h-.467l.813 1.529v.891h.422v-.891l.811-1.529h-.465zm.7 2.42.196-.563h.938l.198.563h.439l-.916-2.42h-.377l-.914 2.42h.437zm.665-1.906.351 1.004h-.701l.351-1.004zm2.217.946a.55.55 0 0 0-.091.307c0 .204.072.37.214.497.144.126.336.189.575.189s.445-.065.618-.194l.136.161h.469l-.356-.421c.14-.191.209-.435.209-.733h-.351a.973.973 0 0 1-.101.444l-.467-.552.165-.12a.905.905 0 0 0 .251-.253.532.532 0 0 0 .076-.279.496.496 0 0 0-.17-.384.61.61 0 0 0-.432-.156.641.641 0 0 0-.465.166.591.591 0 0 0-.173.449c0 .078.018.158.055.241.038.083.104.184.198.303-.18.129-.3.24-.361.334zm1.092.535a.616.616 0 0 1-.382.136c-.121 0-.217-.035-.289-.105s-.108-.161-.108-.273c0-.13.067-.245.2-.346l.052-.037.529.623zm-.434-1.072c-.114-.141-.171-.258-.171-.351 0-.081.023-.148.07-.201s.109-.08.188-.08c.073 0 .133.023.181.068a.21.21 0 0 1 .072.161.298.298 0 0 1-.103.234l-.052.042-.184.126zm3.94 1.314c.166-.145.262-.347.286-.605h-.419c-.022.173-.075.296-.158.371s-.207.111-.372.111a.468.468 0 0 1-.412-.206c-.093-.137-.14-.337-.14-.598v-.214c.002-.258.052-.454.15-.587a.493.493 0 0 1 .422-.201c.157 0 .277.039.357.116.082.076.133.202.153.376h.419c-.027-.265-.121-.47-.284-.615s-.378-.218-.645-.218a.978.978 0 0 0-.525.141c-.151.094-.267.228-.347.402s-.121.375-.121.603v.226c.003.223.045.418.125.587s.193.299.339.391a.949.949 0 0 0 .51.136c.276 0 .497-.072.663-.216zm2.472-.339c.082-.18.123-.388.123-.625v-.135a1.462 1.462 0 0 0-.126-.62.924.924 0 0 0-.878-.552.957.957 0 0 0-.525.145.939.939 0 0 0-.354.414 1.484 1.484 0 0 0-.125.625v.136c.001.232.043.436.126.613a.962.962 0 0 0 .356.411.98.98 0 0 0 .525.143.97.97 0 0 0 .525-.143.932.932 0 0 0 .352-.412zm-.451-1.368c.102.143.153.349.153.617v.126c0 .273-.05.48-.151.622a.493.493 0 0 1-.429.213.503.503 0 0 1-.432-.218c-.103-.145-.155-.351-.155-.617v-.14c.002-.26.054-.462.156-.603a.496.496 0 0 1 .427-.214c.186 0 .33.072.43.214z"/></symbol><symbol id="icon-client3" viewBox="0 0 57 32"><path d="M19.417 26.187c.008 0 .017.002.025.005s.015.007.02.013l.116.111a.955.955 0 0 1-.327.211 1.299 1.299 0 0 1-.464.076 1.213 1.213 0 0 1-.436-.071.942.942 0 0 1-.329-.2.878.878 0 0 1-.212-.308 1.02 1.02 0 0 1-.074-.396.91.91 0 0 1 .305-.705 1.06 1.06 0 0 1 .349-.201c.143-.048.296-.072.449-.071.143-.003.285.019.417.064.115.043.221.104.313.178l-.097.119a.085.085 0 0 1-.025.021.066.066 0 0 1-.039.009.086.086 0 0 1-.042-.013l-.052-.032-.073-.04a.818.818 0 0 0-.229-.071 1.11 1.11 0 0 0-.173-.013.952.952 0 0 0-.323.053.683.683 0 0 0-.417.387.81.81 0 0 0-.06.313.795.795 0 0 0 .06.318.68.68 0 0 0 .402.383.867.867 0 0 0 .3.05c.059.001.119-.003.177-.01a.69.69 0 0 0 .384-.163.09.09 0 0 1 .055-.02zM22.776 25.629a.974.974 0 0 1-.078.393c-.047.114-.122.218-.219.305s-.214.155-.344.2a1.42 1.42 0 0 1-.884 0 1.027 1.027 0 0 1-.342-.201.904.904 0 0 1-.221-.308 1.022 1.022 0 0 1 0-.787.94.94 0 0 1 .221-.31c.097-.084.214-.15.342-.193.284-.096.6-.096.884 0 .129.046.246.114.343.201a.914.914 0 0 1 .298.699zm-.306 0a.84.84 0 0 0-.055-.316.653.653 0 0 0-.402-.385 1.025 1.025 0 0 0-.643 0 .683.683 0 0 0-.246.149.63.63 0 0 0-.157.236.927.927 0 0 0 0 .632.643.643 0 0 0 .403.384c.207.067.435.067.643 0a.698.698 0 0 0 .246-.148.662.662 0 0 0 .156-.236.82.82 0 0 0 .055-.316zM25.067 25.96l.03.071.033-.071a.68.68 0 0 1 .038-.07l.743-1.174c.015-.02.028-.033.042-.037a.207.207 0 0 1 .061-.006h.22v1.909h-.26V25.119a.726.726 0 0 1 0-.066l-.747 1.19c-.009.018-.025.033-.044.043s-.041.016-.064.016h-.042c-.023 0-.045-.005-.064-.016s-.034-.026-.044-.044l-.769-1.198v1.533h-.252v-1.905h.22a.207.207 0 0 1 .061.006.087.087 0 0 1 .041.037l.759 1.175a.418.418 0 0 1 .038.068zM27.864 25.865v.715h-.291v-1.906h.649c.122-.002.244.012.362.042a.724.724 0 0 1 .256.119.492.492 0 0 1 .145.187.576.576 0 0 1 .049.244.54.54 0 0 1-.211.435.752.752 0 0 1-.257.126 1.25 1.25 0 0 1-.35.044l-.352-.005zm0-.205h.352a.808.808 0 0 0 .225-.029.52.52 0 0 0 .163-.082.358.358 0 0 0 .134-.286c.003-.053-.007-.106-.029-.155s-.057-.094-.102-.13a.624.624 0 0 0-.391-.102h-.352v.786zM31.772 26.583h-.23a.109.109 0 0 1-.064-.018.123.123 0 0 1-.038-.044l-.198-.461h-.993l-.205.461a.107.107 0 0 1-.101.062h-.23l.872-1.909h.302l.884 1.909zm-1.439-.709h.82l-.346-.777a1.276 1.276 0 0 1-.065-.179l-.034.1a.98.98 0 0 1-.032.081l-.343.776zM33.029 24.682c.017.008.032.02.044.034l1.272 1.439V24.673h.26v1.909h-.145a.136.136 0 0 1-.06-.011.165.165 0 0 1-.047-.035l-1.271-1.438a.726.726 0 0 1 0 .066v1.419h-.26v-1.909h.154a.15.15 0 0 1 .052.009zM36.748 25.823v.758h-.291v-.758l-.804-1.15h.26a.114.114 0 0 1 .063.016.159.159 0 0 1 .039.043l.503.742a.717.717 0 0 1 .088.169l.038-.082a.745.745 0 0 1 .049-.087l.496-.747a.18.18 0 0 1 .038-.04.098.098 0 0 1 .063-.019h.263l-.806 1.155zM24.923 21.47c.127.014.255.025.384.035 1.962-.763 3.622-2.011 4.772-3.588s1.74-3.415 1.695-5.282l-2.162-1.879c.44 1.988.234 4.043-.594 5.935s-2.245 3.547-4.094 4.779z"/><path d="m24.151 21.383.058.01c1.975-1.228 3.482-2.942 4.323-4.921s.981-4.133.4-6.181l-3.08-2.676c1.246 2.2 1.747 4.661 1.446 7.098s-1.393 4.75-3.147 6.67zM34.596 14.841c-.523 2.052-1.794 3.902-3.624 5.276-.534.404-1.111.763-1.722 1.074 1.49-.38 2.859-1.053 4.003-1.966s2.03-2.042 2.592-3.3l-1.249-1.084z"/><path d="m34.106 14.539-1.778-1.545c-.034 1.762-.61 3.483-1.669 4.986s-2.562 2.731-4.352 3.559h.009c.399 0 .798-.021 1.194-.062 1.673-.593 3.151-1.537 4.303-2.748s1.94-2.65 2.295-4.189zM24.409 6.486 22.287 4.64c-1.897.637-3.528 1.756-4.68 3.212s-1.772 3.179-1.778 4.946c.007 1.952.763 3.846 2.149 5.383s3.322 2.628 5.501 3.101c1.946-2.06 3.085-4.605 3.252-7.266s-.647-5.299-2.323-7.53zM39.008 14.255c-.008-2.316-1.07-4.535-2.955-6.173s-4.439-2.561-7.105-2.567a11.3 11.3 0 0 0-3.602.582l12.99 11.286a7.647 7.647 0 0 0 .672-3.128z"/></symbol><symbol id="icon-client4" viewBox="0 0 65 32"><path d="M10.016 9.983h-.002c-1.827 0-3.308 1.316-3.308 2.94v.002c0 1.624 1.481 2.94 3.308 2.94h.002c1.827 0 3.308-1.316 3.308-2.94v-.002c0-1.624-1.481-2.94-3.308-2.94zM34.434 9.043c-.005-2.255-1.015-4.417-2.81-6.012S27.398.538 24.86.533c-2.538.004-4.972.902-6.767 2.497s-2.806 3.757-2.811 6.013v12.436s19.149-1.895 19.151-12.434v-.002zM0 25.562c.005 1.569.708 3.073 1.956 4.183s2.94 1.735 4.706 1.74c1.765-.005 3.457-.63 4.705-1.739s1.952-2.613 1.957-4.182V16.91S-.001 18.23-.001 25.562zm6.662 1.55c-.345 0-.682-.091-.969-.261s-.511-.413-.643-.696-.167-.595-.099-.896.233-.577.477-.794.555-.364.893-.424c.338-.06.689-.029 1.008.088s.591.316.783.571a1.404 1.404 0 0 1 .163 1.456c-.087.189-.216.36-.378.505-.162.145-.355.259-.567.338s-.439.119-.669.119v-.006zM20.128 26.258h-1.286v1.328h-.67v-3.25h2.116v.542h-1.446v.839h1.286v.54zm3.218-.223c0 .32-.057.6-.17.842s-.275.427-.487.558c-.21.131-.451.196-.723.196a1.289 1.289 0 0 1-1.212-.748 1.907 1.907 0 0 1-.176-.83v-.161c0-.32.057-.601.172-.844a1.285 1.285 0 0 1 1.212-.756c.271 0 .511.065.721.196.211.129.374.316.489.56.116.242.174.523.174.841v.145zm-.678-.147c0-.341-.061-.6-.183-.777s-.296-.266-.522-.266a.596.596 0 0 0-.52.263c-.122.174-.184.43-.185.768v.158c0 .332.061.589.183.772s.298.275.527.275a.592.592 0 0 0 .518-.263c.121-.177.182-.434.183-.772v-.158zm2.85.846a.342.342 0 0 0-.134-.29c-.089-.068-.25-.14-.482-.214a3.465 3.465 0 0 1-.551-.223c-.369-.199-.554-.468-.554-.806 0-.176.049-.332.147-.469a.985.985 0 0 1 .426-.324c.186-.077.394-.116.625-.116.232 0 .439.042.621.127a.978.978 0 0 1 .422.355.926.926 0 0 1 .152.522h-.67a.434.434 0 0 0-.141-.346c-.094-.083-.225-.125-.395-.125-.164 0-.291.035-.382.105a.323.323 0 0 0-.136.272c0 .106.053.194.158.266.107.071.264.138.471.201.381.115.659.257.833.426s.261.381.261.634a.785.785 0 0 1-.319.663c-.213.159-.499.239-.859.239-.25 0-.478-.045-.683-.136a1.1 1.1 0 0 1-.471-.377.97.97 0 0 1-.161-.554h.672c0 .359.214.538.643.538a.631.631 0 0 0 .373-.096.318.318 0 0 0 .134-.272zm3.574-1.855h-.996v2.708h-.67v-2.708h-.982v-.542h2.647v.542zm2.339 1.299h-1.286v.871h1.509v.538h-2.179v-3.25h2.174v.542h-1.504v.775h1.286v.525zm1.82.218h-.533v1.19h-.67v-3.25h1.208c.384 0 .68.086.888.257s.312.413.312.725a.998.998 0 0 1-.145.556.979.979 0 0 1-.435.353l.703 1.328v.031h-.719l-.609-1.19zm-.534-.542h.54c.168 0 .298-.042.391-.127a.463.463 0 0 0 .138-.355.49.49 0 0 0-.132-.362c-.086-.088-.219-.132-.4-.132h-.538v.975zm4.058.587v1.145h-.67v-3.25h1.268c.244 0 .458.045.643.134a.98.98 0 0 1 .429.382c.1.164.15.35.15.56 0 .318-.109.57-.328.754-.217.183-.519.275-.904.275h-.587zm0-.542h.598c.177 0 .312-.042.404-.125.094-.083.141-.202.141-.357 0-.159-.047-.288-.141-.386s-.223-.149-.388-.152h-.614v1.02zm4.237.279h-1.286v.871h1.509v.538h-2.179v-3.25h2.174v.542h-1.504v.775h1.286v.525zm3.107-1.299h-.995v2.708h-.67v-2.708h-.982v-.542h2.647v.542zm2.339 1.299h-1.286v.871h1.509v.538h-2.178v-3.25h2.174v.542h-1.504v.775h1.286v.525zm1.819.218h-.533v1.19h-.67v-3.25h1.208c.384 0 .68.086.888.257s.313.413.313.725a.998.998 0 0 1-.145.556.979.979 0 0 1-.435.353l.703 1.328v.031h-.719l-.609-1.19zm-.533-.542h.54c.168 0 .298-.042.391-.127a.463.463 0 0 0 .138-.355.49.49 0 0 0-.132-.362c-.086-.088-.219-.132-.4-.132h-.538v.975zm3.935.88a.342.342 0 0 0-.134-.29c-.089-.068-.25-.14-.482-.214a3.465 3.465 0 0 1-.551-.223c-.369-.199-.554-.468-.554-.806 0-.176.049-.332.147-.469a.985.985 0 0 1 .426-.324c.186-.077.394-.116.625-.116.232 0 .439.042.621.127a.973.973 0 0 1 .422.355.926.926 0 0 1 .152.522h-.67a.434.434 0 0 0-.141-.346c-.094-.083-.225-.125-.395-.125-.164 0-.291.035-.382.105a.323.323 0 0 0-.136.272c0 .106.053.194.158.266.107.071.264.138.471.201.381.115.658.257.833.426s.261.381.261.634a.785.785 0 0 1-.319.663c-.213.159-.499.239-.859.239-.25 0-.478-.045-.683-.136a1.1 1.1 0 0 1-.471-.377.97.97 0 0 1-.161-.554h.672c0 .359.214.538.643.538a.634.634 0 0 0 .373-.096.318.318 0 0 0 .134-.272z"/></symbol><symbol id="icon-client5" viewBox="0 0 57 32"><path d="M14.27 23.859c.13.147.199.332.196.521.007.123-.017.247-.07.361s-.132.216-.233.297c-.252.175-.565.26-.881.24h-1.549v-3.302h1.517c.299-.018.596.059.84.219.098.075.176.17.227.277s.074.224.068.341a.725.725 0 0 1-.176.505.839.839 0 0 1-.462.258.897.897 0 0 1 .523.282zm-1.816-.499h.648a.653.653 0 0 0 .412-.11c.049-.04.087-.09.111-.146s.034-.116.028-.176c.005-.06-.005-.12-.029-.175s-.061-.106-.108-.147a.665.665 0 0 0-.425-.111h-.638v.866zm1.124 1.267c.052-.041.093-.093.12-.151s.038-.121.034-.184c.004-.064-.008-.127-.035-.186s-.069-.111-.121-.153a.714.714 0 0 0-.44-.119h-.68v.908h.689a.732.732 0 0 0 .435-.114zM17.371 25.278l-.844-1.291h-.317v1.291h-.726v-3.302h1.374c.346-.022.689.078.957.281.192.179.308.415.327.666s-.061.499-.224.7c-.17.178-.401.296-.655.336l.898 1.32h-.789zm-1.161-1.74h.594c.412 0 .618-.167.618-.5a.458.458 0 0 0-.151-.371.687.687 0 0 0-.467-.134h-.601l.007 1.005zM21.339 24.614h-1.446l-.255.665h-.761l1.328-3.265h.823l1.323 3.265h-.761l-.25-.665zm-.194-.5-.529-1.394-.529 1.394h1.057zM26.305 25.278h-.721l-1.616-2.245v2.245h-.719v-3.302h.719l1.616 2.258v-2.258h.721v3.302zM30.417 24.488a1.501 1.501 0 0 1-.652.582 2.282 2.282 0 0 1-1.013.208h-1.283v-3.302h1.283c.351-.008.698.061 1.013.203.276.127.503.328.652.576a1.78 1.78 0 0 1 0 1.732zm-.824-.079c.206-.219.319-.499.319-.788s-.113-.569-.319-.788a1.326 1.326 0 0 0-.902-.281h-.5v2.137h.5c.329.019.654-.082.902-.281zM21.79 3.609s9.301 3.215 9.103 7.867v7.869s-9.294-3.217-9.1-7.869l-.004-7.867zM39.179 17.503a13.494 13.494 0 0 1 5.909-1.994v-2.463c-2.444.862-4.517 2.426-5.909 4.457z"/><path d="M38.124 18.245c1.438-2.651 3.93-4.696 6.964-5.715V5.432s-13.245 4.58-12.965 11.205V27.84s.59-.205 1.519-.589c0-.358 0-.719.042-1.082.274-3.076 1.871-5.926 4.44-7.924z"/><path d="M36.864 22.407c.07-.777.225-1.546.463-2.294-1.599 1.725-2.568 3.866-2.77 6.122-.019.213-.03.426-.035.645a40.466 40.466 0 0 0 2.548-1.229 10.624 10.624 0 0 1-.206-3.244zM37.391 22.447a10.17 10.17 0 0 0 .164 2.938c3.619-1.983 7.685-5.046 7.528-8.748v-.323c-2.585.265-5.004 1.3-6.885 2.946a10.29 10.29 0 0 0-.807 3.188z"/></symbol><symbol id="mail" viewBox="0 0 43 32">
<path d="M38.667 0h-34.667c-2.206 0-4 1.794-4 4v24c0 2.206 1.794 4 4 4h34.667c2.206 0 4-1.794 4-4v-24c0-2.206-1.794-4-4-4zM38.667 2.667c0.181 0 0.353 0.038 0.511 0.103l-17.844 15.466-17.844-15.466c0.158-0.066 0.33-0.103 0.511-0.103h34.667zM38.667 29.333h-34.667c-0.736 0-1.333-0.598-1.333-1.333v-22.413l17.793 15.421c0.251 0.217 0.563 0.326 0.874 0.326s0.622-0.108 0.874-0.326l17.793-15.421v22.413c0 0.736-0.598 1.333-1.333 1.333z"></path>
</symbol><symbol id="icon-facebook" viewBox="0 0 32 32"><path d="M21.329 5.313h2.921V.225C23.746.156 22.013 0 19.994 0c-4.212 0-7.097 2.649-7.097 7.519V12H8.249v5.688h4.648V32h5.699V17.689h4.46l.708-5.688h-5.169V8.082c.001-1.644.444-2.769 2.735-2.769z"/></symbol><symbol id="icon-instagram" viewBox="0 0 32 32"><path d="M31.969 9.408c-.075-1.7-.35-2.869-.744-3.882a7.806 7.806 0 0 0-1.851-2.838A7.867 7.867 0 0 0 26.542.844C25.523.45 24.36.175 22.66.1 20.947.019 20.403 0 16.059 0s-4.888.019-6.595.094c-1.7.075-2.869.35-3.882.744a7.803 7.803 0 0 0-2.838 1.85A7.867 7.867 0 0 0 .9 5.52C.506 6.539.231 7.702.156 9.402c-.081 1.713-.1 2.257-.1 6.601s.019 4.888.094 6.595c.075 1.7.35 2.869.744 3.882a7.895 7.895 0 0 0 1.85 2.838 7.867 7.867 0 0 0 2.832 1.844c1.019.394 2.182.669 3.882.744 1.706.075 2.25.094 6.595.094s4.888-.019 6.595-.094c1.7-.075 2.869-.35 3.882-.744a8.184 8.184 0 0 0 4.682-4.682c.394-1.019.669-2.182.744-3.882.075-1.707.094-2.251.094-6.595s-.006-4.888-.081-6.595zm-2.882 13.065c-.069 1.563-.331 2.407-.55 2.969a5.31 5.31 0 0 1-3.038 3.038c-.563.219-1.413.481-2.969.55-1.688.075-2.194.094-6.464.094s-4.782-.019-6.464-.094c-1.563-.069-2.407-.331-2.969-.55a4.926 4.926 0 0 1-1.838-1.194 4.974 4.974 0 0 1-1.194-1.838c-.219-.563-.481-1.413-.55-2.969-.075-1.688-.094-2.194-.094-6.464s.019-4.782.094-6.464c.069-1.563.331-2.407.55-2.969a4.868 4.868 0 0 1 1.2-1.838A4.974 4.974 0 0 1 6.639 3.55c.563-.219 1.413-.481 2.969-.55 1.688-.075 2.194-.094 6.464-.094 4.276 0 4.782.019 6.464.094 1.563.069 2.407.331 2.969.55a4.914 4.914 0 0 1 1.838 1.194 4.974 4.974 0 0 1 1.194 1.838c.219.563.481 1.413.55 2.969.075 1.688.094 2.194.094 6.464s-.019 4.77-.094 6.458z"/><path d="M16.059 7.783c-4.538 0-8.22 3.682-8.22 8.22s3.682 8.22 8.22 8.22c4.539 0 8.22-3.682 8.22-8.22s-3.682-8.22-8.22-8.22zm0 13.552a5.333 5.333 0 0 1 0-10.664 5.333 5.333 0 0 1 0 10.664zM26.524 7.458a1.919 1.919 0 1 1-3.838 0 1.919 1.919 0 0 1 3.838 0z"/></symbol><symbol id="icon-linkedin" viewBox="0 0 32 32"><path d="M31.992 32v-.001H32V20.263c0-5.741-1.236-10.164-7.948-10.164-3.227 0-5.392 1.771-6.276 3.449h-.093v-2.913h-6.364v21.364h6.627V21.42c0-2.785.528-5.479 3.977-5.479 3.399 0 3.449 3.179 3.449 5.657v10.401h6.62zM.528 10.636h6.635V32H.528V10.636zM3.843 0C1.722 0 0 1.721 0 3.843s1.721 3.879 3.843 3.879c2.121 0 3.843-1.757 3.843-3.879A3.846 3.846 0 0 0 3.843 0z"/></symbol><symbol id="icon-client6" viewBox="0 0 57 32"><path d="M28.493 14.618a1.58 1.58 0 0 1-.323-1.061v-1.538c0-.471.107-.83.321-1.075s.581-.367 1.102-.366c.489 0 .836.104 1.042.313.224.266.333.592.308.92v.361h-.875v-.366c.003-.12-.005-.24-.025-.358a.352.352 0 0 0-.125-.213.505.505 0 0 0-.317-.083.533.533 0 0 0-.333.088.412.412 0 0 0-.145.235 1.74 1.74 0 0 0-.034.38v1.866c-.014.18.025.36.112.524.044.055.104.099.175.127s.149.038.226.029a.478.478 0 0 0 .31-.084.375.375 0 0 0 .13-.227c.02-.124.03-.249.027-.374v-.379h.875v.346c.025.342-.082.682-.303.967-.201.228-.544.343-1.047.343s-.884-.122-1.1-.375zM32.137 14.633c-.221-.239-.332-.588-.332-1.05v-1.617c0-.457.11-.802.332-1.037s.591-.351 1.109-.35c.515 0 .882.117 1.103.35.221.235.333.58.333 1.037v1.617c0 .457-.112.807-.337 1.048s-.591.361-1.1.361c-.509 0-.886-.122-1.109-.36zm1.517-.388a.906.906 0 0 0 .105-.479v-1.98a.88.88 0 0 0-.103-.469c-.044-.057-.106-.101-.179-.129s-.152-.037-.231-.027c-.079-.009-.159 0-.231.028s-.135.072-.18.129a.853.853 0 0 0-.105.469v1.99a.888.888 0 0 0 .105.479c.051.05.114.091.185.119a.612.612 0 0 0 .635-.119v-.009zM35.735 10.626h.942l.708 2.984.725-2.984h.917l.092 4.308h-.678l-.072-2.994-.699 2.994h-.544l-.725-3.005-.067 3.005h-.685l.085-4.308zM40.176 10.626h1.468c.846 0 1.268.408 1.268 1.223 0 .781-.445 1.171-1.335 1.17h-.5v1.915h-.906l.005-4.308zm1.254 1.841a.7.7 0 0 0 .498-.136.693.693 0 0 0 .13-.486 1.327 1.327 0 0 0-.044-.391c-.013-.043-.036-.083-.067-.118s-.07-.065-.114-.087a.94.94 0 0 0-.404-.069h-.352v1.287h.352zM44.218 10.626h.973l.998 4.308h-.844l-.197-.993h-.868l-.203.993h-.857l.998-4.308zm.832 2.815-.339-1.808-.339 1.808h.678zM46.996 10.626h.634l1.214 2.457v-2.457h.752v4.308h-.603l-1.221-2.565v2.565h-.777l.002-4.308zM51.357 13.291l-1.009-2.659h.85l.616 1.708.578-1.708h.832l-.997 2.659v1.642h-.87v-1.642zM29.892 16.817v.225h-.739v1.75h-.31v-1.75H28.1v-.225h1.792zM32.209 18.793h-.239a.105.105 0 0 1-.067-.019.102.102 0 0 1-.04-.045l-.214-.469h-1.026l-.214.469a.119.119 0 0 1-.033.053.112.112 0 0 1-.067.019h-.239l.906-1.976h.315l.917 1.968zm-1.5-.734h.855l-.362-.804a1.426 1.426 0 0 1-.067-.186 4.03 4.03 0 0 0-.034.105l-.033.083-.359.802zM33.771 18.599a1.018 1.018 0 0 0 .315-.023.961.961 0 0 0 .13-.036c.04-.014.08-.031.121-.048v-.444h-.362c-.009 0-.018-.001-.026-.003s-.016-.007-.023-.012c-.006-.004-.011-.01-.014-.016s-.005-.013-.004-.02v-.152h.703v.757a1.407 1.407 0 0 1-.609.202 2.591 2.591 0 0 1-.264.012 1.41 1.41 0 0 1-.457-.073 1.104 1.104 0 0 1-.362-.206.956.956 0 0 1-.234-.313.99.99 0 0 1-.083-.41.907.907 0 0 1 .316-.726c.103-.089.227-.159.362-.205.155-.05.32-.075.486-.074.084 0 .169.006.252.017a1.21 1.21 0 0 1 .397.128c.056.031.108.065.158.103l-.087.122c-.007.011-.017.021-.029.027s-.027.01-.041.01a.118.118 0 0 1-.056-.016 1.344 1.344 0 0 1-.089-.047.727.727 0 0 0-.121-.053 1.171 1.171 0 0 0-.167-.044 1.362 1.362 0 0 0-.23-.017 1.06 1.06 0 0 0-.35.055.704.704 0 0 0-.435.402.924.924 0 0 0 0 .659.756.756 0 0 0 .446.405c.115.034.237.047.359.039zM36.659 18.567h.989v.225h-1.292v-1.976h.31l-.007 1.75zM38.678 18.792h-.31v-1.976h.31v1.976zM39.83 16.826a.151.151 0 0 1 .047.036l1.324 1.489a.41.41 0 0 1 0-.07v-1.472h.27v1.984h-.156a.14.14 0 0 1-.067-.011.184.184 0 0 1-.049-.038l-1.323-1.488v1.536h-.259v-1.976h.161c.017 0 .035.003.051.009zM43.753 16.817v.217h-1.098v.652h.89v.21h-.89v.674h1.098v.217h-1.417v-1.971h1.417zM11.286 4.616l13.757 3.372v11.818l-13.757-3.371V4.616zm-.882-1.007V17.01l15.52 3.806V7.417L10.404 3.61z"/><path d="M18.722 27.036 3.2 23.227V9.828l15.522 3.807v13.401z"/><path d="m10.661 4.465 13.578 3.33-5.774 4.987L4.885 9.45l5.776-4.985zm-.257-.856L3.2 9.828l15.522 3.807 7.202-6.219-15.52-3.807zM19.595 26.282l6.329-5.465-6.329-1.553v7.018z"/></symbol><symbol id="icon-smartphone" viewBox="0 0 20 32"><path d="M17 0H3C1.346 0 0 1.346 0 3v26c0 1.654 1.346 3 3 3h14c1.654 0 3-1.346 3-3V3c0-1.654-1.346-3-3-3zM3 2h14a1 1 0 0 1 1 1v21H2V3a1 1 0 0 1 1-1zm14 28H3a1 1 0 0 1-1-1v-3h16v3a1 1 0 0 1-1 1z"/><path d="M4.707 27.478c.391.365.391.956 0 1.321s-1.024.365-1.414 0c-.391-.365-.391-.956 0-1.321s1.024-.365 1.414 0z"/></symbol><symbol id="icon-twitter" viewBox="0 0 32 32"><path d="M32 6.078c-1.19.522-2.458.868-3.78 1.036a6.523 6.523 0 0 0 2.886-3.626 13.11 13.11 0 0 1-4.16 1.588A6.574 6.574 0 0 0 22.154 3c-3.632 0-6.556 2.948-6.556 6.562 0 .52.044 1.02.152 1.496-5.454-.266-10.28-2.88-13.522-6.862a6.605 6.605 0 0 0-.898 3.316 6.57 6.57 0 0 0 2.914 5.452 6.479 6.479 0 0 1-2.964-.808v.072c0 3.188 2.274 5.836 5.256 6.446a6.548 6.548 0 0 1-1.72.216 5.8 5.8 0 0 1-1.242-.112c.85 2.598 3.262 4.508 6.13 4.57a13.182 13.182 0 0 1-8.134 2.798c-.538 0-1.054-.024-1.57-.09A18.469 18.469 0 0 0 10.064 29c12.072 0 18.672-10 18.672-18.668 0-.29-.01-.57-.024-.848A13.087 13.087 0 0 0 32 6.078z"/></symbol><symbol id="icon-vector" viewBox="0 0 11 11"><path d="M11 1.108l-1.108-1.108-4.392 4.392-4.392-4.392-1.108 1.108 4.392 4.392-4.392 4.392 1.108 1.108 4.392-4.392 4.392 4.392 1.108-1.108-4.392-4.392 4.392-4.392z"></path><symbol id="icon-send" viewBox="0 0 24 24"><path fill="#fff" style="fill: var(--color1, #fff)" d="M24 0l-24 13.5 7.67 2.841 11.83-11.091-8.998 12.14 0.007 0.003-0.009-0.003v6.61l4.301-5.018 5.449 2.018 3.75-21z"></path>
</symbol><symbol id="icon-email-black" viewBox="0 0 18 18">
<path d="M15 3h-12c-0.825 0-1.493 0.675-1.493 1.5l-0.008 9c0 0.825 0.675 1.5 1.5 1.5h12c0.825 0 1.5-0.675 1.5-1.5v-9c0-0.825-0.675-1.5-1.5-1.5zM14.7 6.188l-5.302 3.315c-0.24 0.15-0.555 0.15-0.795 0l-5.302-3.315c-0.188-0.12-0.3-0.323-0.3-0.54 0-0.503 0.548-0.802 0.975-0.54l5.025 3.142 5.025-3.142c0.428-0.262 0.975 0.037 0.975 0.54 0 0.217-0.113 0.42-0.3 0.54z"></path>
</symbol>
<symbol id="icon-person-black" viewBox="0 0 18 18">
<path d="M9 9c1.657 0 3-1.342 3-3s-1.342-3-3-3c-1.657 0-3 1.342-3 3s1.342 3 3 3zM9 10.5c-2.003 0-6 1.005-6 3v0.75c0 0.413 0.337 0.75 0.75 0.75h10.5c0.413 0 0.75-0.338 0.75-0.75v-0.75c0-1.995-3.997-3-6-3z"></path>
</symbol>
<symbol id="icon-phone-black" viewBox="0 0 18 18">
<path d="M13.996 11.123l-1.838-0.21c-0.441-0.051-0.876 0.101-1.187 0.413l-1.332 1.332c-2.048-1.042-3.727-2.714-4.769-4.769l1.339-1.339c0.311-0.311 0.463-0.745 0.412-1.187l-0.21-1.824c-0.087-0.731-0.702-1.281-1.44-1.281h-1.252c-0.818 0-1.498 0.68-1.447 1.498 0.384 6.18 5.326 11.116 11.499 11.499 0.818 0.051 1.498-0.63 1.498-1.447v-1.252c0.007-0.731-0.543-1.346-1.274-1.433z"></path>
</symbol>
<symbol id="icon-Vector" viewBox="0 0 16 12">
<path fill="#fff" style="fill: var(--color1, #fff); stroke: var(--color1, #fff)" stroke="#fff" stroke-linejoin="miter" stroke-linecap="butt" stroke-miterlimit="4" stroke-width="0.24" d="M2.348 5.702l-0.083-0.079-1.24 1.175 4.369 4.168 9.179-8.756-1.232-1.175-7.947 7.574-3.046-2.906z"></path>
</symbol>

<symbol id="icon-burger" width="24" height="16" viewBox="0 0 24 16">
<path fill-rule="evenodd" clip-rule="evenodd" d="M0 2.66667V0H24V2.66667H0ZM0 9.33333H24V6.66667H0V9.33333ZM0 16H24V13.3333H0V16Z"><path>
</symbol>


</defs></svg>